# MagicaVoxel @ Ephtracy

# material
mtllib player.mtl
usemtl palette

# normals
vn -1 0 0
vn 1 0 0
vn 0 0 1
vn 0 0 -1
vn 0 -1 0
vn 0 1 0

# texcoords
vt 0.0214844 0.5
vt 0.849609 0.5
vt 0.876953 0.5
vt 0.966797 0.5

# verts
v -4.5 1 -1.5
v -4.5 1 -2.5
v -4.5 2 -1.5
v -4.5 2 -2.5
v -3.5 1 -2.5
v -3.5 1 -3.5
v -3.5 2 -2.5
v -3.5 2 -3.5
v -2.5 1 0.5
v -2.5 1 -0.5
v -2.5 1 -1.5
v -2.5 1 -3.5
v -2.5 1 -4.5
v -2.5 2 0.5
v -2.5 2 -0.5
v -2.5 2 -1.5
v -2.5 2 -2.5
v -2.5 2 -3.5
v -2.5 2 -4.5
v -2.5 3 -1.5
v -2.5 3 -2.5
v -1.5 0 -0.5
v -1.5 0 -4.5
v -1.5 1 2.5
v -1.5 1 0.5
v -1.5 1 -0.5
v -1.5 1 -2.5
v -1.5 1 -4.5
v -1.5 2 2.5
v -1.5 2 0.5
v -1.5 2 -0.5
v -1.5 2 -1.5
v -1.5 2 -2.5
v -1.5 2 -4.5
v -1.5 3 0.5
v -1.5 3 -1.5
v -1.5 3 -2.5
v -1.5 3 -3.5
v -1.5 3 -4.5
v -1.5 4 -1.5
v -1.5 4 -3.5
v -0.5 0 2.5
v -0.5 0 -0.5
v -0.5 1 4.5
v -0.5 1 2.5
v -0.5 1 -0.5
v -0.5 1 -3.5
v -0.5 1 -4.5
v -0.5 2 4.5
v -0.5 2 3.5
v -0.5 2 2.5
v -0.5 2 1.5
v -0.5 2 0.5
v -0.5 2 -3.5
v -0.5 2 -4.5
v -0.5 3 3.5
v -0.5 3 1.5
v -0.5 3 0.5
v 0.5 0 -2.5
v 0.5 0 -4.5
v 0.5 1 -2.5
v 0.5 1 -4.5
v 0.5 2 -3.5
v 0.5 2 -4.5
v 0.5 3 -1.5
v 0.5 3 -3.5
v 0.5 3 -4.5
v 0.5 4 -1.5
v 0.5 4 -3.5
v 1.5 1 -3.5
v 1.5 1 -4.5
v 1.5 2 -3.5
v 1.5 2 -4.5
v -1.5 1 -3.5
v -1.5 1 -4.5
v -1.5 2 -3.5
v -1.5 2 -4.5
v -0.5 0 -2.5
v -0.5 0 -4.5
v -0.5 1 -2.5
v -0.5 1 -4.5
v -0.5 2 -3.5
v -0.5 2 -4.5
v -0.5 3 -1.5
v -0.5 3 -3.5
v -0.5 3 -4.5
v -0.5 4 -1.5
v -0.5 4 -3.5
v 0.5 0 2.5
v 0.5 0 -0.5
v 0.5 1 4.5
v 0.5 1 2.5
v 0.5 1 -0.5
v 0.5 1 -3.5
v 0.5 1 -4.5
v 0.5 2 4.5
v 0.5 2 3.5
v 0.5 2 2.5
v 0.5 2 1.5
v 0.5 2 0.5
v 0.5 2 -3.5
v 0.5 2 -4.5
v 0.5 3 3.5
v 0.5 3 1.5
v 0.5 3 0.5
v 1.5 0 -0.5
v 1.5 0 -4.5
v 1.5 1 2.5
v 1.5 1 0.5
v 1.5 1 -0.5
v 1.5 1 -2.5
v 1.5 1 -4.5
v 1.5 2 2.5
v 1.5 2 0.5
v 1.5 2 -0.5
v 1.5 2 -1.5
v 1.5 2 -2.5
v 1.5 2 -4.5
v 1.5 3 0.5
v 1.5 3 -1.5
v 1.5 3 -2.5
v 1.5 3 -3.5
v 1.5 3 -4.5
v 1.5 4 -1.5
v 1.5 4 -3.5
v 2.5 1 0.5
v 2.5 1 -0.5
v 2.5 1 -1.5
v 2.5 1 -3.5
v 2.5 1 -4.5
v 2.5 2 0.5
v 2.5 2 -0.5
v 2.5 2 -1.5
v 2.5 2 -2.5
v 2.5 2 -3.5
v 2.5 2 -4.5
v 2.5 3 -1.5
v 2.5 3 -2.5
v 3.5 1 -2.5
v 3.5 1 -3.5
v 3.5 2 -2.5
v 3.5 2 -3.5
v 4.5 1 -1.5
v 4.5 1 -2.5
v 4.5 2 -1.5
v 4.5 2 -2.5
v -0.5 1 4.5
v -0.5 2 4.5
v 0.5 1 4.5
v 0.5 2 4.5
v -0.5 2 3.5
v -0.5 3 3.5
v 0.5 2 3.5
v 0.5 3 3.5
v -1.5 1 2.5
v -1.5 2 2.5
v -0.5 0 2.5
v -0.5 1 2.5
v -0.5 2 2.5
v 0.5 0 2.5
v 0.5 1 2.5
v 0.5 2 2.5
v 1.5 1 2.5
v 1.5 2 2.5
v -2.5 1 0.5
v -2.5 2 0.5
v -1.5 1 0.5
v -1.5 2 0.5
v -1.5 3 0.5
v -0.5 2 0.5
v -0.5 3 0.5
v 0.5 2 0.5
v 0.5 3 0.5
v 1.5 1 0.5
v 1.5 2 0.5
v 1.5 3 0.5
v 2.5 1 0.5
v 2.5 2 0.5
v -1.5 0 -0.5
v -1.5 1 -0.5
v -0.5 0 -0.5
v -0.5 1 -0.5
v 0.5 0 -0.5
v 0.5 1 -0.5
v 1.5 0 -0.5
v 1.5 1 -0.5
v -4.5 1 -1.5
v -4.5 2 -1.5
v -2.5 1 -1.5
v -2.5 2 -1.5
v -2.5 3 -1.5
v -1.5 2 -1.5
v -1.5 3 -1.5
v -1.5 4 -1.5
v -0.5 3 -1.5
v -0.5 4 -1.5
v 0.5 3 -1.5
v 0.5 4 -1.5
v 1.5 2 -1.5
v 1.5 3 -1.5
v 1.5 4 -1.5
v 2.5 1 -1.5
v 2.5 2 -1.5
v 2.5 3 -1.5
v 4.5 1 -1.5
v 4.5 2 -1.5
v -4.5 1 -2.5
v -4.5 2 -2.5
v -3.5 1 -2.5
v -3.5 2 -2.5
v -2.5 2 -2.5
v -2.5 3 -2.5
v -1.5 2 -2.5
v -1.5 3 -2.5
v -0.5 0 -2.5
v -0.5 1 -2.5
v 0.5 0 -2.5
v 0.5 1 -2.5
v 1.5 2 -2.5
v 1.5 3 -2.5
v 2.5 2 -2.5
v 2.5 3 -2.5
v 3.5 1 -2.5
v 3.5 2 -2.5
v 4.5 1 -2.5
v 4.5 2 -2.5
v -3.5 1 -3.5
v -3.5 2 -3.5
v -2.5 1 -3.5
v -2.5 2 -3.5
v -1.5 1 -3.5
v -1.5 2 -3.5
v -1.5 3 -3.5
v -1.5 4 -3.5
v -0.5 1 -3.5
v -0.5 2 -3.5
v -0.5 3 -3.5
v -0.5 4 -3.5
v 0.5 1 -3.5
v 0.5 2 -3.5
v 0.5 3 -3.5
v 0.5 4 -3.5
v 1.5 1 -3.5
v 1.5 2 -3.5
v 1.5 3 -3.5
v 1.5 4 -3.5
v 2.5 1 -3.5
v 2.5 2 -3.5
v 3.5 1 -3.5
v 3.5 2 -3.5
v -2.5 1 -4.5
v -2.5 2 -4.5
v -1.5 0 -4.5
v -1.5 1 -4.5
v -1.5 2 -4.5
v -1.5 3 -4.5
v -0.5 0 -4.5
v -0.5 1 -4.5
v -0.5 2 -4.5
v -0.5 3 -4.5
v 0.5 0 -4.5
v 0.5 1 -4.5
v 0.5 2 -4.5
v 0.5 3 -4.5
v 1.5 0 -4.5
v 1.5 1 -4.5
v 1.5 2 -4.5
v 1.5 3 -4.5
v 2.5 1 -4.5
v 2.5 2 -4.5
v -0.5 0 2.5
v 0.5 0 2.5
v -1.5 0 -0.5
v -0.5 0 -0.5
v 0.5 0 -0.5
v 1.5 0 -0.5
v -0.5 0 -2.5
v 0.5 0 -2.5
v -1.5 0 -4.5
v -0.5 0 -4.5
v 0.5 0 -4.5
v 1.5 0 -4.5
v -0.5 1 4.5
v 0.5 1 4.5
v -1.5 1 2.5
v -0.5 1 2.5
v 0.5 1 2.5
v 1.5 1 2.5
v -2.5 1 0.5
v -1.5 1 0.5
v 1.5 1 0.5
v 2.5 1 0.5
v -2.5 1 -0.5
v -1.5 1 -0.5
v -0.5 1 -0.5
v 0.5 1 -0.5
v 1.5 1 -0.5
v 2.5 1 -0.5
v -4.5 1 -1.5
v -2.5 1 -1.5
v 2.5 1 -1.5
v 4.5 1 -1.5
v -4.5 1 -2.5
v -3.5 1 -2.5
v -1.5 1 -2.5
v -0.5 1 -2.5
v 0.5 1 -2.5
v 1.5 1 -2.5
v 3.5 1 -2.5
v 4.5 1 -2.5
v -3.5 1 -3.5
v -2.5 1 -3.5
v 2.5 1 -3.5
v 3.5 1 -3.5
v -2.5 1 -4.5
v -1.5 1 -4.5
v -0.5 1 -4.5
v 0.5 1 -4.5
v 1.5 1 -4.5
v 2.5 1 -4.5
v -1.5 2 -3.5
v -0.5 2 -3.5
v 0.5 2 -3.5
v 1.5 2 -3.5
v -1.5 2 -4.5
v -0.5 2 -4.5
v 0.5 2 -4.5
v 1.5 2 -4.5
v -1.5 1 -3.5
v -0.5 1 -3.5
v 0.5 1 -3.5
v 1.5 1 -3.5
v -1.5 1 -4.5
v -0.5 1 -4.5
v 0.5 1 -4.5
v 1.5 1 -4.5
v -0.5 2 4.5
v 0.5 2 4.5
v -0.5 2 3.5
v 0.5 2 3.5
v -1.5 2 2.5
v -0.5 2 2.5
v 0.5 2 2.5
v 1.5 2 2.5
v -0.5 2 1.5
v 0.5 2 1.5
v -2.5 2 0.5
v -1.5 2 0.5
v -0.5 2 0.5
v 0.5 2 0.5
v 1.5 2 0.5
v 2.5 2 0.5
v -2.5 2 -0.5
v -1.5 2 -0.5
v 1.5 2 -0.5
v 2.5 2 -0.5
v -4.5 2 -1.5
v -2.5 2 -1.5
v -1.5 2 -1.5
v 1.5 2 -1.5
v 2.5 2 -1.5
v 4.5 2 -1.5
v -4.5 2 -2.5
v -3.5 2 -2.5
v -2.5 2 -2.5
v -1.5 2 -2.5
v 1.5 2 -2.5
v 2.5 2 -2.5
v 3.5 2 -2.5
v 4.5 2 -2.5
v -3.5 2 -3.5
v -2.5 2 -3.5
v -0.5 2 -3.5
v 0.5 2 -3.5
v 2.5 2 -3.5
v 3.5 2 -3.5
v -2.5 2 -4.5
v -1.5 2 -4.5
v -0.5 2 -4.5
v 0.5 2 -4.5
v 1.5 2 -4.5
v 2.5 2 -4.5
v -0.5 3 3.5
v 0.5 3 3.5
v -0.5 3 1.5
v 0.5 3 1.5
v -1.5 3 0.5
v -0.5 3 0.5
v 0.5 3 0.5
v 1.5 3 0.5
v -2.5 3 -1.5
v -1.5 3 -1.5
v -0.5 3 -1.5
v 0.5 3 -1.5
v 1.5 3 -1.5
v 2.5 3 -1.5
v -2.5 3 -2.5
v -1.5 3 -2.5
v 1.5 3 -2.5
v 2.5 3 -2.5
v -1.5 3 -3.5
v -0.5 3 -3.5
v 0.5 3 -3.5
v 1.5 3 -3.5
v -1.5 3 -4.5
v -0.5 3 -4.5
v 0.5 3 -4.5
v 1.5 3 -4.5
v -1.5 4 -1.5
v -0.5 4 -1.5
v 0.5 4 -1.5
v 1.5 4 -1.5
v -1.5 4 -3.5
v -0.5 4 -3.5
v 0.5 4 -3.5
v 1.5 4 -3.5

# faces
f 3/4/1 2/4/1 1/4/1
f 4/4/1 2/4/1 3/4/1
f 7/3/1 6/3/1 5/3/1
f 8/3/1 6/3/1 7/3/1
f 14/3/1 10/3/1 9/3/1
f 15/4/1 11/4/1 10/4/1
f 15/3/1 10/3/1 14/3/1
f 16/4/1 11/4/1 15/4/1
f 18/3/1 13/3/1 12/3/1
f 19/3/1 13/3/1 18/3/1
f 20/3/1 17/3/1 16/3/1
f 21/3/1 17/3/1 20/3/1
f 26/3/1 23/3/1 22/3/1
f 27/3/1 23/3/1 26/3/1
f 28/3/1 23/3/1 27/3/1
f 29/3/1 25/3/1 24/3/1
f 30/3/1 25/3/1 29/3/1
f 35/3/1 31/3/1 30/3/1
f 35/3/1 32/3/1 31/3/1
f 36/3/1 32/3/1 35/3/1
f 37/3/1 34/3/1 33/3/1
f 38/3/1 34/3/1 37/3/1
f 39/3/1 34/3/1 38/3/1
f 40/4/1 37/4/1 36/4/1
f 40/4/1 38/4/1 37/4/1
f 41/4/1 38/4/1 40/4/1
f 45/3/1 43/3/1 42/3/1
f 46/3/1 43/3/1 45/3/1
f 49/3/1 45/3/1 44/3/1
f 50/3/1 45/3/1 49/3/1
f 51/3/1 45/3/1 50/3/1
f 54/3/1 48/3/1 47/3/1
f 55/3/1 48/3/1 54/3/1
f 56/2/1 51/2/1 50/2/1
f 56/2/1 52/2/1 51/2/1
f 57/3/1 53/3/1 52/3/1
f 57/2/1 52/2/1 56/2/1
f 58/3/1 53/3/1 57/3/1
f 61/3/1 60/3/1 59/3/1
f 62/3/1 60/3/1 61/3/1
f 66/3/1 64/3/1 63/3/1
f 67/3/1 64/3/1 66/3/1
f 68/4/1 66/4/1 65/4/1
f 69/4/1 66/4/1 68/4/1
f 72/3/1 71/3/1 70/3/1
f 73/3/1 71/3/1 72/3/1
f 74/3/2 75/3/2 76/3/2
f 76/3/2 75/3/2 77/3/2
f 78/3/2 79/3/2 80/3/2
f 80/3/2 79/3/2 81/3/2
f 82/3/2 83/3/2 85/3/2
f 85/3/2 83/3/2 86/3/2
f 84/4/2 85/4/2 87/4/2
f 87/4/2 85/4/2 88/4/2
f 89/3/2 90/3/2 92/3/2
f 92/3/2 90/3/2 93/3/2
f 91/3/2 92/3/2 96/3/2
f 96/3/2 92/3/2 97/3/2
f 97/3/2 92/3/2 98/3/2
f 94/3/2 95/3/2 101/3/2
f 101/3/2 95/3/2 102/3/2
f 97/2/2 98/2/2 103/2/2
f 98/2/2 99/2/2 103/2/2
f 99/3/2 100/3/2 104/3/2
f 103/2/2 99/2/2 104/2/2
f 104/3/2 100/3/2 105/3/2
f 106/3/2 107/3/2 110/3/2
f 110/3/2 107/3/2 111/3/2
f 111/3/2 107/3/2 112/3/2
f 108/3/2 109/3/2 113/3/2
f 113/3/2 109/3/2 114/3/2
f 114/3/2 115/3/2 119/3/2
f 115/3/2 116/3/2 119/3/2
f 119/3/2 116/3/2 120/3/2
f 117/3/2 118/3/2 121/3/2
f 121/3/2 118/3/2 122/3/2
f 122/3/2 118/3/2 123/3/2
f 120/4/2 121/4/2 124/4/2
f 121/4/2 122/4/2 124/4/2
f 124/4/2 122/4/2 125/4/2
f 126/3/2 127/3/2 131/3/2
f 127/4/2 128/4/2 132/4/2
f 131/3/2 127/3/2 132/3/2
f 132/4/2 128/4/2 133/4/2
f 129/3/2 130/3/2 135/3/2
f 135/3/2 130/3/2 136/3/2
f 133/3/2 134/3/2 137/3/2
f 137/3/2 134/3/2 138/3/2
f 139/3/2 140/3/2 141/3/2
f 141/3/2 140/3/2 142/3/2
f 143/4/2 144/4/2 145/4/2
f 145/4/2 144/4/2 146/4/2
f 149/3/3 148/3/3 147/3/3
f 150/3/3 148/3/3 149/3/3
f 153/2/3 152/2/3 151/2/3
f 154/2/3 152/2/3 153/2/3
f 158/3/3 156/3/3 155/3/3
f 159/3/3 156/3/3 158/3/3
f 160/3/3 158/3/3 157/3/3
f 161/3/3 158/3/3 160/3/3
f 163/3/3 162/3/3 161/3/3
f 164/3/3 162/3/3 163/3/3
f 167/3/3 166/3/3 165/3/3
f 168/3/3 166/3/3 167/3/3
f 170/3/3 169/3/3 168/3/3
f 171/3/3 169/3/3 170/3/3
f 175/3/3 173/3/3 172/3/3
f 176/3/3 173/3/3 175/3/3
f 177/3/3 175/3/3 174/3/3
f 178/3/3 175/3/3 177/3/3
f 181/3/3 180/3/3 179/3/3
f 182/3/3 180/3/3 181/3/3
f 185/3/3 184/3/3 183/3/3
f 186/3/3 184/3/3 185/3/3
f 189/4/3 188/4/3 187/4/3
f 190/4/3 188/4/3 189/4/3
f 192/3/3 191/3/3 190/3/3
f 193/3/3 191/3/3 192/3/3
f 195/4/3 194/4/3 193/4/3
f 196/4/3 194/4/3 195/4/3
f 200/4/3 198/4/3 197/4/3
f 201/4/3 198/4/3 200/4/3
f 203/3/3 200/3/3 199/3/3
f 204/3/3 200/3/3 203/3/3
f 205/4/3 203/4/3 202/4/3
f 206/4/3 203/4/3 205/4/3
f 207/4/4 208/4/4 209/4/4
f 209/4/4 208/4/4 210/4/4
f 211/3/4 212/3/4 213/3/4
f 213/3/4 212/3/4 214/3/4
f 215/3/4 216/3/4 217/3/4
f 217/3/4 216/3/4 218/3/4
f 219/3/4 220/3/4 221/3/4
f 221/3/4 220/3/4 222/3/4
f 223/4/4 224/4/4 225/4/4
f 225/4/4 224/4/4 226/4/4
f 227/3/4 228/3/4 229/3/4
f 229/3/4 228/3/4 230/3/4
f 231/1/4 232/1/4 235/1/4
f 235/1/4 232/1/4 236/1/4
f 233/4/4 234/4/4 237/4/4
f 237/4/4 234/4/4 238/4/4
f 236/3/4 237/3/4 240/3/4
f 240/3/4 237/3/4 241/3/4
f 239/1/4 240/1/4 243/1/4
f 243/1/4 240/1/4 244/1/4
f 241/4/4 242/4/4 245/4/4
f 245/4/4 242/4/4 246/4/4
f 247/3/4 248/3/4 249/3/4
f 249/3/4 248/3/4 250/3/4
f 251/3/4 252/3/4 254/3/4
f 254/3/4 252/3/4 255/3/4
f 253/3/4 254/3/4 257/3/4
f 257/3/4 254/3/4 258/3/4
f 255/3/4 256/3/4 259/3/4
f 259/3/4 256/3/4 260/3/4
f 258/3/4 259/3/4 262/3/4
f 262/3/4 259/3/4 263/3/4
f 261/3/4 262/3/4 265/3/4
f 265/3/4 262/3/4 266/3/4
f 263/3/4 264/3/4 267/3/4
f 267/3/4 264/3/4 268/3/4
f 266/3/4 267/3/4 269/3/4
f 269/3/4 267/3/4 270/3/4
f 274/3/5 272/3/5 271/3/5
f 275/3/5 272/3/5 274/3/5
f 277/3/5 274/3/5 273/3/5
f 277/3/5 276/3/5 275/3/5
f 277/3/5 275/3/5 274/3/5
f 278/3/5 276/3/5 277/3/5
f 279/3/5 277/3/5 273/3/5
f 280/3/5 277/3/5 279/3/5
f 281/3/5 276/3/5 278/3/5
f 282/3/5 276/3/5 281/3/5
f 286/3/5 284/3/5 283/3/5
f 287/3/5 284/3/5 286/3/5
f 290/3/5 286/3/5 285/3/5
f 291/3/5 288/3/5 287/3/5
f 293/3/5 290/3/5 289/3/5
f 294/3/5 286/3/5 290/3/5
f 294/3/5 290/3/5 293/3/5
f 295/3/5 286/3/5 294/3/5
f 296/3/5 292/3/5 291/3/5
f 296/3/5 291/3/5 287/3/5
f 297/3/5 292/3/5 296/3/5
f 298/3/5 292/3/5 297/3/5
f 300/4/5 294/4/5 293/4/5
f 301/4/5 298/4/5 297/4/5
f 303/4/5 300/4/5 299/4/5
f 304/4/5 300/4/5 303/4/5
f 305/4/5 294/4/5 300/4/5
f 305/4/5 300/4/5 304/4/5
f 308/4/5 301/4/5 297/4/5
f 308/4/5 302/4/5 301/4/5
f 309/4/5 302/4/5 308/4/5
f 310/4/5 302/4/5 309/4/5
f 311/3/5 305/3/5 304/3/5
f 312/3/5 305/3/5 311/3/5
f 313/3/5 309/3/5 308/3/5
f 314/3/5 309/3/5 313/3/5
f 315/3/5 305/3/5 312/3/5
f 316/3/5 305/3/5 315/3/5
f 317/3/5 307/3/5 306/3/5
f 318/3/5 307/3/5 317/3/5
f 319/3/5 313/3/5 308/3/5
f 320/3/5 313/3/5 319/3/5
f 325/3/5 322/3/5 321/3/5
f 326/3/5 322/3/5 325/3/5
f 327/3/5 324/3/5 323/3/5
f 328/3/5 324/3/5 327/3/5
f 329/3/6 330/3/6 333/3/6
f 333/3/6 330/3/6 334/3/6
f 331/3/6 332/3/6 335/3/6
f 335/3/6 332/3/6 336/3/6
f 337/3/6 338/3/6 339/3/6
f 339/3/6 338/3/6 340/3/6
f 341/3/6 342/3/6 345/3/6
f 343/3/6 344/3/6 346/3/6
f 341/3/6 345/3/6 348/3/6
f 348/3/6 345/3/6 349/3/6
f 346/3/6 344/3/6 350/3/6
f 350/3/6 344/3/6 351/3/6
f 347/3/6 348/3/6 353/3/6
f 353/3/6 348/3/6 354/3/6
f 351/3/6 352/3/6 355/3/6
f 355/3/6 352/3/6 356/3/6
f 353/4/6 354/4/6 358/4/6
f 358/4/6 354/4/6 359/4/6
f 355/4/6 356/4/6 360/4/6
f 360/4/6 356/4/6 361/4/6
f 357/4/6 358/4/6 363/4/6
f 363/4/6 358/4/6 364/4/6
f 364/4/6 358/4/6 365/4/6
f 361/4/6 362/4/6 368/4/6
f 368/4/6 362/4/6 369/4/6
f 369/4/6 362/4/6 370/4/6
f 365/3/6 366/3/6 371/3/6
f 364/3/6 365/3/6 371/3/6
f 371/3/6 366/3/6 372/3/6
f 368/3/6 369/3/6 375/3/6
f 367/3/6 368/3/6 375/3/6
f 375/3/6 369/3/6 376/3/6
f 372/3/6 366/3/6 377/3/6
f 377/3/6 366/3/6 378/3/6
f 373/3/6 374/3/6 379/3/6
f 379/3/6 374/3/6 380/3/6
f 367/3/6 375/3/6 381/3/6
f 381/3/6 375/3/6 382/3/6
f 383/2/6 384/2/6 385/2/6
f 385/2/6 384/2/6 386/2/6
f 385/3/6 386/3/6 388/3/6
f 388/3/6 386/3/6 389/3/6
f 388/3/6 389/3/6 392/3/6
f 389/3/6 390/3/6 392/3/6
f 387/3/6 388/3/6 392/3/6
f 392/3/6 390/3/6 393/3/6
f 393/3/6 390/3/6 394/3/6
f 394/3/6 390/3/6 395/3/6
f 391/3/6 392/3/6 397/3/6
f 397/3/6 392/3/6 398/3/6
f 395/3/6 396/3/6 399/3/6
f 399/3/6 396/3/6 400/3/6
f 393/3/6 394/3/6 402/3/6
f 402/3/6 394/3/6 403/3/6
f 401/3/6 402/3/6 405/3/6
f 405/3/6 402/3/6 406/3/6
f 403/3/6 404/3/6 407/3/6
f 407/3/6 404/3/6 408/3/6
f 409/4/6 410/4/6 413/4/6
f 413/4/6 410/4/6 414/4/6
f 411/4/6 412/4/6 415/4/6
f 415/4/6 412/4/6 416/4/6
